<svg xmlns="http://www.w3.org/2000/svg" viewBox="0 0 188.68 43.21"><defs><style>.cls-1,.cls-2{fill:#231f20;}.cls-1{stroke:#231f20;stroke-linejoin:bevel;stroke-width:0.27px;}</style></defs><title>aka-logo-core</title><g id="Layer_2" data-name="Layer 2"><g id="Layer_1-2" data-name="Layer 1"><g id="Layer_1-2-2" data-name="Layer 1-2"><path class="cls-1" d="M13.2,13.12H4.11L1.72,18.94H.12L7.8.49H9.59l7.7,18.45H15.62ZM4.69,11.74h8l-4-9.63Z"/><path class="cls-2" d="M16.47,9.71C16.47,4,20.4,0,25.51,0s8.23,2.91,8.55,7.75l-1.81.12c-.18-3.8-2.61-6.3-6.74-6.3s-7.07,3.15-7.07,8.17,3,8.11,7.24,8.11a6.31,6.31,0,0,0,6.68-5.92c0-.12,0-.25,0-.37H26.25V10H34v9.09H32.28v-3.7c-.77,2.55-3.63,4-6.68,4C20.31,19.43,16.47,15.54,16.47,9.71Z"/><path class="cls-1" d="M43.2,18.94H36.93V.49H43.2C48.52.49,52,4.27,52,9.72S48.52,18.94,43.2,18.94Zm-.08-17H38.45V17.53h4.67c4.66,0,7.26-3.37,7.26-7.81S47.78,1.9,43.12,1.9Z"/><path class="cls-1" d="M54.45.49H67.07V1.9H56V8.76H66.12v1.41H56v7.36H67.21v1.41H54.45Z"/><path class="cls-2" d="M81.79,19.07c-.36-.5-.63-1.93-.77-4.22-.12-2-1.1-3.68-3.9-3.68H71.3v7.9H69.46V.36h7.07c4.72,0,7,2.17,7,5.4A4.48,4.48,0,0,1,79.2,10.4a4.12,4.12,0,0,1,3.66,4.13c.24,2.73.33,3.86,1,4.54Zm-5.2-9.44c3.48,0,5-1.37,5-3.87,0-2.31-1.51-3.83-5-3.83H71.3v7.7Z"/><path class="cls-1" d="M.92,24.23H2.46v10L13,24.23h2.1L6.93,32l8,10.71H13L5.78,33,2.46,36.19v6.49H.92Z"/><path class="cls-1" d="M17,35.8V24.23h1.54V35.74c0,3.64,2.21,5.82,5.53,5.82s5.5-2.18,5.5-5.82V24.23h1.54V35.8c0,4.78-3.08,7.17-7,7.17S17,40.58,17,35.8Z"/><path class="cls-1" d="M49.09,42.68H47L36,26.07V42.68H34.49V24.23h2.1l11,16.62V24.23h1.49Z"/><path class="cls-2" d="M53.29,36c.15,3.71,2.65,5.76,6.07,5.76,3.08,0,5-1.36,5-3.68,0-1.9-1.13-2.91-3.84-3.45l-3.8-.74c-2.67-.53-4.52-2-4.52-4.78,0-3.09,2.47-5.32,6.42-5.32,4.55,0,7.25,2.5,7.25,6.71l-1.72.15c-.06-3.41-2.08-5.4-5.5-5.4-3,0-4.63,1.45-4.63,3.8,0,2.11,1.33,2.79,3.8,3.27l3.33.65c3.29.65,5,2,5,5,0,3.3-2.85,5.29-6.8,5.29-4.46,0-7.76-2.53-7.76-7.07Z"/><path class="cls-1" d="M66.05,24.23H81v1.44H74.28v17H72.76v-17h-6.7Z"/><path class="cls-1" d="M90.75,36.86H81.66l-2.39,5.82h-1.6l7.68-18.45h1.78l7.71,18.45H93.17Zm-8.51-1.38h8l-4-9.63Z"/><path class="cls-1" d="M96.6,24.23h1.54v10l10.5-10h2.1L102.61,32l8,10.71H108.7L101.44,33l-3.32,3.18v6.49H96.6Z"/><path class="cls-1" d="M125,36.86h-9l-2.39,5.82H112l7.65-18.45h1.78l7.71,18.45h-1.68Zm-8.5-1.38h7.94l-4-9.63Z"/><path class="cls-1" d="M137.67,42.68H131.4V24.23h6.27c5.32,0,8.77,3.78,8.77,9.23S143,42.68,137.67,42.68Zm-.08-17h-4.68V41.27h4.68c4.65,0,7.26-3.37,7.26-7.81s-2.61-7.82-7.26-7.82Z"/><path class="cls-1" d="M149.54,24.23h12.63v1.41H151.08V32.5h10.13v1.41H151.08v7.36H162.3v1.41H149.54Z"/><path class="cls-1" d="M166.48,25.93V42.68H165V24.23h2.36l7,16.88,7-16.88h2.37V42.68h-1.52V25.93l-7,16.75h-1.81Z"/><path class="cls-1" d="M187,24.23h1.54V42.68H187Z"/></g></g></g></svg>